<svg id="visual" viewBox="0 0 1920 300" width="1920" height="300" xmlns="http://www.w3.org/2000/svg" xmlns:xlink="http://www.w3.org/1999/xlink" version="1.1"><path d="M0 67L175 67L175 22L349 22L349 43L524 43L524 58L698 58L698 61L873 61L873 40L1047 40L1047 40L1222 40L1222 25L1396 25L1396 58L1571 58L1571 34L1745 34L1745 58L1920 58L1920 49L1920 0L1920 0L1745 0L1745 0L1571 0L1571 0L1396 0L1396 0L1222 0L1222 0L1047 0L1047 0L873 0L873 0L698 0L698 0L524 0L524 0L349 0L349 0L175 0L175 0L0 0Z" fill="#ffffff"></path><path d="M0 187L175 187L175 142L349 142L349 106L524 106L524 172L698 172L698 160L873 160L873 94L1047 94L1047 127L1222 127L1222 88L1396 88L1396 139L1571 139L1571 106L1745 106L1745 109L1920 109L1920 94L1920 47L1920 56L1745 56L1745 32L1571 32L1571 56L1396 56L1396 23L1222 23L1222 38L1047 38L1047 38L873 38L873 59L698 59L698 56L524 56L524 41L349 41L349 20L175 20L175 65L0 65Z" fill="#d1c0da"></path><path d="M0 250L175 250L175 238L349 238L349 229L524 229L524 232L698 232L698 250L873 250L873 196L1047 196L1047 184L1222 184L1222 217L1396 217L1396 202L1571 202L1571 208L1745 208L1745 181L1920 181L1920 208L1920 92L1920 107L1745 107L1745 104L1571 104L1571 137L1396 137L1396 86L1222 86L1222 125L1047 125L1047 92L873 92L873 158L698 158L698 170L524 170L524 104L349 104L349 140L175 140L175 185L0 185Z" fill="#a384b5"></path><path d="M0 274L175 274L175 262L349 262L349 259L524 259L524 265L698 265L698 277L873 277L873 214L1047 214L1047 229L1222 229L1222 265L1396 265L1396 220L1571 220L1571 253L1745 253L1745 232L1920 232L1920 238L1920 206L1920 179L1745 179L1745 206L1571 206L1571 200L1396 200L1396 215L1222 215L1222 182L1047 182L1047 194L873 194L873 248L698 248L698 230L524 230L524 227L349 227L349 236L175 236L175 248L0 248Z" fill="#764a91"></path><path d="M0 301L175 301L175 301L349 301L349 301L524 301L524 301L698 301L698 301L873 301L873 301L1047 301L1047 301L1222 301L1222 301L1396 301L1396 301L1571 301L1571 301L1745 301L1745 301L1920 301L1920 301L1920 236L1920 230L1745 230L1745 251L1571 251L1571 218L1396 218L1396 263L1222 263L1222 227L1047 227L1047 212L873 212L873 275L698 275L698 263L524 263L524 257L349 257L349 260L175 260L175 272L0 272Z" fill="#470d6d"></path></svg>