<svg id="visual" viewBox="0 0 1920 450" width="1920" height="450" xmlns="http://www.w3.org/2000/svg" xmlns:xlink="http://www.w3.org/1999/xlink" version="1.1"><path d="M0 105L128 105L128 82L256 82L256 60L384 60L384 91L512 91L512 87L640 87L640 172L768 172L768 64L896 64L896 96L1024 96L1024 55L1152 55L1152 91L1280 91L1280 172L1408 172L1408 118L1536 118L1536 145L1664 145L1664 51L1792 51L1792 64L1920 64L1920 123L1920 0L1920 0L1792 0L1792 0L1664 0L1664 0L1536 0L1536 0L1408 0L1408 0L1280 0L1280 0L1152 0L1152 0L1024 0L1024 0L896 0L896 0L768 0L768 0L640 0L640 0L512 0L512 0L384 0L384 0L256 0L256 0L128 0L128 0L0 0Z" fill="#470d6d"></path><path d="M0 141L128 141L128 127L256 127L256 82L384 82L384 118L512 118L512 168L640 168L640 244L768 244L768 136L896 136L896 154L1024 154L1024 132L1152 132L1152 136L1280 136L1280 208L1408 208L1408 163L1536 163L1536 208L1664 208L1664 82L1792 82L1792 145L1920 145L1920 150L1920 121L1920 62L1792 62L1792 49L1664 49L1664 143L1536 143L1536 116L1408 116L1408 170L1280 170L1280 89L1152 89L1152 53L1024 53L1024 94L896 94L896 62L768 62L768 170L640 170L640 85L512 85L512 89L384 89L384 58L256 58L256 80L128 80L128 103L0 103Z" fill="#764a91"></path><path d="M0 258L128 258L128 235L256 235L256 208L384 208L384 195L512 195L512 208L640 208L640 294L768 294L768 163L896 163L896 222L1024 222L1024 249L1152 249L1152 235L1280 235L1280 339L1408 339L1408 285L1536 285L1536 316L1664 316L1664 172L1792 172L1792 262L1920 262L1920 222L1920 148L1920 143L1792 143L1792 80L1664 80L1664 206L1536 206L1536 161L1408 161L1408 206L1280 206L1280 134L1152 134L1152 130L1024 130L1024 152L896 152L896 134L768 134L768 242L640 242L640 166L512 166L512 116L384 116L384 80L256 80L256 125L128 125L128 139L0 139Z" fill="#a384b5"></path><path d="M0 352L128 352L128 325L256 325L256 249L384 249L384 285L512 285L512 258L640 258L640 343L768 343L768 244L896 244L896 316L1024 316L1024 312L1152 312L1152 316L1280 316L1280 379L1408 379L1408 339L1536 339L1536 402L1664 402L1664 271L1792 271L1792 303L1920 303L1920 307L1920 220L1920 260L1792 260L1792 170L1664 170L1664 314L1536 314L1536 283L1408 283L1408 337L1280 337L1280 233L1152 233L1152 247L1024 247L1024 220L896 220L896 161L768 161L768 292L640 292L640 206L512 206L512 193L384 193L384 206L256 206L256 233L128 233L128 256L0 256Z" fill="#d1c0da"></path><path d="M0 451L128 451L128 451L256 451L256 451L384 451L384 451L512 451L512 451L640 451L640 451L768 451L768 451L896 451L896 451L1024 451L1024 451L1152 451L1152 451L1280 451L1280 451L1408 451L1408 451L1536 451L1536 451L1664 451L1664 451L1792 451L1792 451L1920 451L1920 451L1920 305L1920 301L1792 301L1792 269L1664 269L1664 400L1536 400L1536 337L1408 337L1408 377L1280 377L1280 314L1152 314L1152 310L1024 310L1024 314L896 314L896 242L768 242L768 341L640 341L640 256L512 256L512 283L384 283L384 247L256 247L256 323L128 323L128 350L0 350Z" fill="#ffffff"></path></svg>